/* XPM */
static char * pyjama_xpm[] = {
"32 32 166 2",
"  	c None",
". 	c #023331",
"+ 	c #043D35",
"@ 	c #03413C",
"# 	c #05453D",
"$ 	c #054F47",
"% 	c #04554E",
"& 	c #035954",
"* 	c #025B57",
"= 	c #025856",
"- 	c #005757",
"; 	c #005858",
"> 	c #015A5A",
", 	c #035956",
"' 	c #04473E",
") 	c #044943",
"! 	c #025956",
"~ 	c #015554",
"{ 	c #005151",
"] 	c #004D4D",
"^ 	c #004A4A",
"/ 	c #015352",
"( 	c #004C4C",
"_ 	c #005454",
": 	c #015755",
"< 	c #035955",
"[ 	c #025B58",
"} 	c #03514B",
"| 	c #025A56",
"1 	c #004E4D",
"2 	c #015C5B",
"3 	c #03504A",
"4 	c #04544E",
"5 	c #004B4B",
"6 	c #005252",
"7 	c #034C4C",
"8 	c #307369",
"9 	c #538473",
"0 	c #578A77",
"a 	c #3A786C",
"b 	c #054E4D",
"c 	c #005050",
"d 	c #025C58",
"e 	c #04423B",
"f 	c #035753",
"g 	c #065D5A",
"h 	c #699074",
"i 	c #C1A753",
"j 	c #D29E28",
"k 	c #DC980D",
"l 	c #DC970B",
"m 	c #CB901D",
"n 	c #B09147",
"o 	c #2C6B61",
"p 	c #004F4F",
"q 	c #03514D",
"r 	c #05443C",
"s 	c #05504A",
"t 	c #04544F",
"u 	c #06554D",
"v 	c #03544F",
"w 	c #03504C",
"x 	c #095F5B",
"y 	c #9D9C67",
"z 	c #D19211",
"A 	c #CE9520",
"B 	c #A26B67",
"C 	c #83336F",
"D 	c #AD985A",
"E 	c #CB901E",
"F 	c #EEA600",
"G 	c #AA924F",
"H 	c #004E4E",
"I 	c #025D5B",
"J 	c #04453E",
"K 	c #768B68",
"L 	c #C9870C",
"M 	c #BC8421",
"N 	c #9EA999",
"O 	c #822182",
"P 	c #820182",
"Q 	c #814283",
"R 	c #A88C4F",
"S 	c #E9A100",
"T 	c #B08C40",
"U 	c #005656",
"V 	c #035550",
"W 	c #9D8447",
"X 	c #D38F00",
"Y 	c #AD823C",
"Z 	c #772C78",
"` 	c #7A1B7A",
" .	c #863886",
"..	c #894480",
"+.	c #9C573A",
"@.	c #CC8A0E",
"#.	c #828D65",
"$.	c #005353",
"%.	c #035553",
"&.	c #035A57",
"*.	c #7C8C66",
"=.	c #BA7A0B",
"-.	c #BB7A0C",
";.	c #A26E46",
">.	c #BAA25C",
",.	c #BE9E49",
"'.	c #C38713",
").	c #BE871D",
"!.	c #919668",
"~.	c #005555",
"{.	c #005D5D",
"].	c #03443D",
"^.	c #025D5A",
"/.	c #08504F",
"(.	c #848D65",
"_.	c #AA843D",
":.	c #B08028",
"<.	c #B5862B",
"[.	c #B99644",
"}.	c #A39B5F",
"|.	c #488071",
"1.	c #014B4B",
"2.	c #004B4A",
"3.	c #005B5B",
"4.	c #045650",
"5.	c #034C45",
"6.	c #005958",
"7.	c #08514F",
"8.	c #1D635D",
"9.	c #286C64",
"0.	c #095250",
"a.	c #025351",
"b.	c #05453E",
"c.	c #063F37",
"d.	c #015A58",
"e.	c #035650",
"f.	c #006161",
"g.	c #045953",
"h.	c #024B47",
"i.	c #006463",
"j.	c #005F5F",
"k.	c #005C5C",
"l.	c #044B44",
"m.	c #035854",
"n.	c #035E5A",
"o.	c #044540",
"p.	c #005A59",
"q.	c #025E5A",
"r.	c #015B59",
"s.	c #04564F",
"t.	c #04453F",
"u.	c #005857",
"v.	c #034F4A",
"w.	c #054E49",
"x.	c #044B45",
"y.	c #044440",
"z.	c #043A38",
"A.	c #06413A",
"B.	c #035853",
"C.	c #025A57",
"D.	c #045852",
"E.	c #025A58",
"F.	c #015958",
"G.	c #03524C",
"H.	c #043F38",
"I.	c #043838",
"                                                                ",
"                                                                ",
"                                                                ",
"                                                                ",
"                                                                ",
"                                                                ",
"                        . + @                                   ",
"              # $ % & * = - - ; > , '                           ",
"        ) ! ~ { ] ^ ^ / ^ ^ ^ ^ ^ ( _ : < [ }                   ",
"        | ^ ^ ^ ^ ^ ^ 1 ^ ^ ^ ^ ^ ^ ^ ^ ^ ^ { 2 3               ",
"      4 5 ^ ^ ^ ^ ^ 6 ^ 7 8 9 0 a b ^ ^ ^ ^ ^ ^ c d e           ",
"      f 5 ^ ^ ^ ^ ^ g h i j k l m n o ^ ^ ^ ^ ^ ^ p : q         ",
"      r s t u v w x y z A B C D E F G ^ ^ ^ ^ ^ H ^ ^ H I J     ",
"                q K L M N O P Q R S T ^ ^ ^ ^ H ^ ^ ^ ^ ^ U V   ",
"              V { W X Y Z `  ...+.@.#.^ ^ ^ p ^ ^ ^ ^ ^ ^ ] $.%.",
"            &.H ^ *.=.-.;.>.,.'.).!.b ^ ^ p ^ ^ ^ ^ ^ ^ ~.{.{ < ",
"        ].^.( ^ ^ /.(._.:.<.[.}.|.1.^ ^ _ 2.^ ^ ^ ^ ^ ~.3.^ ( 4.",
"      5.6.^ ^ ^ ^ ^ ^ 7.8.9.0.^ ^ ^ ^ ( a.f p ^ ^ ^ 6 {.^ ^ - b.",
"  c.f 6 ^ ^ ^ ^ ^ ^ ^ ^ ^ ^ ^ ^ ^ ^ ^ d.    e.{ ^ ( f.5 ^ H g.  ",
"h.i.j.k.- ] ^ ^ ^ ^ ^ ^ ^ ^ ^ ^ ^ ^ { l.      m.] {.p ^ p n.    ",
"o.p.^ ] $.k.j.~.5 ^ ^ ^ ^ ^ ^ ^ ^ ^ [           q.{ { r.s.      ",
"  t.u.^ ^ ^ 5 ~.j.k.{ ^ ^ ^ ^ ^ ^ ] v.          b.w.x.          ",
"    y.r.5 ^ ^ ^ ^ H ; j.{.~.] ^ ^ - z.                          ",
"      A.B.~.5 ^ ^ ^ ^ ^ ( _ k.{ ^ C.                            ",
"          J D.[ - - - ; d.E.! ! F.G.                            ",
"                  H.I.                                          ",
"                                                                ",
"                                                                ",
"                                                                ",
"                                                                ",
"                                                                ",
"                                                                "};
